<svg xmlns="http://www.w3.org/2000/svg" xmlns:xlink="http://www.w3.org/1999/xlink" width="500" zoomAndPan="magnify" viewBox="0 0 375 374.999991" height="500" preserveAspectRatio="xMidYMid meet" version="1.0"><defs><clipPath id="id1"><path d="M 7.203125 46.1875 L 367.953125 46.1875 L 367.953125 328.9375 L 7.203125 328.9375 Z M 7.203125 46.1875 " clip-rule="nonzero"/></clipPath><clipPath id="id2"><path d="M 7.203125 255 L 367.953125 255 L 367.953125 328.9375 L 7.203125 328.9375 Z M 7.203125 255 " clip-rule="nonzero"/></clipPath></defs><g clip-path="url(#id1)"><path fill="#0096ff" d="M 7.203125 328.808594 L 105.464844 166.753906 L 105.683594 166.386719 L 105.90625 166.023438 L 106.128906 165.65625 L 106.347656 165.292969 L 106.570312 164.925781 L 106.792969 164.5625 L 107.015625 164.195312 L 107.234375 163.832031 L 107.679688 163.097656 L 107.902344 162.734375 L 108.121094 162.371094 L 108.566406 161.636719 L 108.789062 161.273438 L 109.007812 160.90625 L 109.230469 160.542969 L 109.675781 159.808594 L 109.894531 159.445312 L 110.117188 159.082031 L 110.339844 158.714844 L 110.558594 158.351562 L 111.003906 157.617188 L 111.226562 157.253906 L 111.445312 156.886719 L 111.667969 156.519531 L 111.890625 156.15625 L 112.109375 155.792969 L 112.332031 155.425781 L 112.554688 155.0625 L 112.777344 154.695312 L 112.996094 154.328125 L 113.21875 153.964844 L 113.664062 153.230469 L 113.882812 152.867188 L 114.105469 152.503906 L 114.328125 152.136719 L 114.546875 151.769531 L 114.769531 151.40625 L 114.992188 151.039062 L 115.214844 150.675781 L 115.4375 150.308594 L 115.65625 149.941406 L 116.101562 149.214844 L 116.320312 148.847656 L 116.542969 148.480469 L 116.765625 148.117188 L 116.988281 147.75 L 117.207031 147.386719 L 117.429688 147.019531 L 117.652344 146.65625 L 117.871094 146.289062 L 118.09375 145.925781 L 118.316406 145.558594 L 118.539062 145.195312 L 118.761719 144.828125 L 118.980469 144.460938 L 119.203125 144.097656 L 119.425781 143.730469 L 119.644531 143.367188 L 119.867188 143 L 120.089844 142.636719 L 120.3125 142.269531 L 120.53125 141.902344 L 120.753906 141.539062 L 120.976562 141.171875 L 121.199219 140.808594 L 121.417969 140.441406 L 121.640625 140.078125 L 121.863281 139.710938 L 122.082031 139.347656 L 122.527344 138.613281 L 122.75 138.25 L 122.96875 137.882812 L 123.191406 137.519531 L 123.414062 137.152344 L 123.632812 136.789062 L 123.855469 136.421875 L 124.078125 136.058594 L 124.300781 135.691406 L 124.519531 135.324219 L 124.742188 134.960938 L 124.964844 134.59375 L 125.1875 134.230469 L 125.40625 133.863281 L 125.628906 133.5 L 125.851562 133.132812 L 126.070312 132.769531 L 126.515625 132.035156 L 126.738281 131.671875 L 126.957031 131.304688 L 127.179688 130.941406 L 127.402344 130.574219 L 127.621094 130.210938 L 127.84375 129.84375 L 128.066406 129.480469 L 128.289062 129.113281 L 128.507812 128.746094 L 128.730469 128.382812 L 128.953125 128.015625 L 129.171875 127.652344 L 129.394531 127.285156 L 129.617188 126.921875 L 129.839844 126.554688 L 130.058594 126.191406 L 130.503906 125.457031 L 130.726562 125.09375 L 130.949219 124.726562 L 131.167969 124.363281 L 131.390625 123.996094 L 131.609375 123.632812 L 131.832031 123.265625 L 132.054688 122.902344 L 132.277344 122.535156 L 132.496094 122.167969 L 132.71875 121.804688 L 132.941406 121.4375 L 133.160156 121.074219 L 133.382812 120.707031 L 133.605469 120.34375 L 134.050781 119.609375 L 134.269531 119.246094 L 134.492188 118.878906 L 134.714844 118.515625 L 134.933594 118.148438 L 135.15625 117.785156 L 135.378906 117.417969 L 135.601562 117.054688 L 135.820312 116.6875 L 136.042969 116.324219 L 136.488281 115.589844 L 136.707031 115.226562 L 136.929688 114.859375 L 137.152344 114.496094 L 137.371094 114.128906 L 137.59375 113.765625 L 137.816406 113.398438 L 138.039062 113.035156 L 138.257812 112.667969 L 138.480469 112.300781 L 138.703125 111.9375 L 138.921875 111.574219 L 139.144531 111.207031 L 139.367188 110.84375 L 139.589844 110.476562 L 139.808594 110.109375 L 140.03125 109.746094 L 140.476562 109.011719 L 140.695312 108.648438 L 140.917969 108.285156 L 141.140625 107.917969 L 141.359375 107.554688 L 141.804688 106.820312 L 142.027344 106.457031 L 142.246094 106.089844 L 142.46875 105.726562 L 142.691406 105.359375 L 142.910156 104.996094 L 143.132812 104.628906 L 143.355469 104.265625 L 143.578125 103.898438 L 143.796875 103.53125 L 144.019531 103.167969 L 144.242188 102.800781 L 144.460938 102.4375 L 144.683594 102.070312 L 144.90625 101.707031 L 145.128906 101.339844 L 145.347656 100.972656 L 145.570312 100.609375 L 145.792969 100.242188 L 146.015625 99.878906 L 146.234375 99.511719 L 146.457031 99.148438 L 146.679688 98.78125 L 146.898438 98.417969 L 147.34375 97.683594 L 147.566406 97.320312 L 147.785156 96.953125 L 148.007812 96.589844 L 148.230469 96.222656 L 148.449219 95.859375 L 148.671875 95.492188 L 148.894531 95.128906 L 149.117188 94.761719 L 149.335938 94.394531 L 149.558594 94.03125 L 149.78125 93.664062 L 150.003906 93.300781 L 150.222656 92.933594 L 150.445312 92.570312 L 150.667969 92.203125 L 150.886719 91.839844 L 151.332031 91.105469 L 151.554688 90.742188 L 151.773438 90.375 L 151.996094 90.011719 L 152.21875 89.644531 L 152.4375 89.28125 L 152.660156 88.914062 L 152.882812 88.550781 L 153.105469 88.183594 L 153.324219 87.816406 L 153.546875 87.453125 L 153.769531 87.085938 L 153.988281 86.722656 L 154.210938 86.355469 L 154.433594 85.992188 L 154.65625 85.625 L 154.875 85.261719 L 155.320312 84.527344 L 155.542969 84.164062 L 155.761719 83.796875 L 156.207031 83.070312 L 156.425781 82.703125 L 156.648438 82.335938 L 156.871094 81.972656 L 157.09375 81.605469 L 157.3125 81.238281 L 157.757812 80.511719 L 157.976562 80.144531 L 158.199219 79.78125 L 158.644531 79.046875 L 158.863281 78.683594 L 159.308594 77.949219 L 159.53125 77.585938 L 159.75 77.222656 L 159.972656 76.855469 L 160.195312 76.492188 L 160.414062 76.125 L 160.636719 75.757812 L 160.859375 75.394531 L 161.082031 75.027344 L 161.300781 74.664062 L 161.523438 74.296875 L 161.746094 73.933594 L 161.964844 73.566406 L 162.1875 73.203125 L 162.632812 72.46875 L 162.851562 72.105469 L 163.074219 71.738281 L 163.296875 71.375 L 163.519531 71.007812 L 163.738281 70.644531 L 163.84375 70.46875 L 163.960938 70.277344 L 164.121094 70.007812 L 164.128906 70 C 164.226562 69.835938 164.324219 69.671875 164.421875 69.503906 L 164.425781 69.496094 L 164.429688 69.492188 L 164.445312 69.464844 L 164.445312 69.460938 L 164.453125 69.453125 L 164.457031 69.4375 L 164.464844 69.429688 L 164.464844 69.425781 L 164.480469 69.402344 L 164.488281 69.386719 L 164.496094 69.378906 L 164.496094 69.375 L 164.503906 69.363281 L 164.503906 69.359375 L 164.511719 69.347656 L 164.515625 69.34375 L 164.523438 69.328125 L 164.527344 69.324219 L 164.535156 69.3125 L 164.535156 69.308594 L 164.542969 69.296875 L 164.542969 69.292969 L 164.550781 69.285156 L 164.554688 69.277344 L 164.554688 69.273438 L 164.5625 69.257812 L 164.570312 69.246094 L 164.574219 69.242188 L 164.578125 69.234375 L 164.582031 69.222656 L 164.585938 69.21875 L 164.601562 69.195312 L 164.605469 69.191406 L 164.609375 69.183594 C 164.679688 69.058594 164.75 68.9375 164.820312 68.816406 L 164.828125 68.804688 L 164.832031 68.796875 L 164.832031 68.792969 L 164.839844 68.78125 L 164.847656 68.773438 L 164.851562 68.765625 L 164.851562 68.761719 L 164.867188 68.738281 L 164.871094 68.730469 L 164.871094 68.726562 L 164.878906 68.714844 L 164.898438 68.679688 L 164.90625 68.667969 L 164.910156 68.664062 L 164.925781 68.632812 L 164.929688 68.628906 L 164.933594 68.621094 L 164.972656 68.554688 L 164.976562 68.542969 L 164.984375 68.53125 L 164.988281 68.527344 L 164.992188 68.519531 L 165.015625 68.476562 L 165.019531 68.472656 L 165.023438 68.460938 L 165.027344 68.460938 L 165.03125 68.449219 L 165.242188 68.085938 C 165.378906 67.84375 165.515625 67.601562 165.652344 67.355469 L 165.65625 67.351562 L 165.671875 67.320312 L 165.675781 67.316406 L 165.683594 67.304688 L 165.683594 67.300781 L 165.691406 67.285156 L 165.695312 67.28125 L 165.703125 67.269531 L 165.703125 67.265625 L 165.710938 67.253906 L 165.714844 67.25 L 165.71875 67.234375 L 165.722656 67.230469 L 165.730469 67.21875 L 165.730469 67.214844 L 165.738281 67.203125 L 165.742188 67.195312 L 165.75 67.183594 L 165.75 67.179688 L 165.757812 67.167969 L 165.761719 67.164062 L 165.769531 67.148438 L 165.769531 67.144531 L 165.777344 67.132812 L 165.78125 67.128906 L 165.785156 67.117188 L 165.789062 67.109375 L 165.796875 67.097656 L 165.800781 67.09375 L 165.804688 67.082031 L 165.808594 67.078125 L 165.816406 67.066406 L 165.820312 67.058594 L 165.824219 67.046875 L 165.828125 67.042969 L 165.835938 67.03125 L 165.847656 67.007812 L 165.855469 66.996094 L 165.859375 66.992188 L 166.0625 66.625 L 166.070312 66.613281 L 166.074219 66.609375 L 166.074219 66.601562 L 166.089844 66.578125 L 166.089844 66.574219 L 166.09375 66.566406 L 166.101562 66.558594 L 166.101562 66.554688 L 166.109375 66.539062 L 166.113281 66.535156 L 166.121094 66.523438 L 166.125 66.511719 L 166.128906 66.503906 L 166.132812 66.5 L 166.140625 66.488281 L 166.144531 66.476562 L 166.148438 66.472656 L 166.152344 66.464844 L 166.160156 66.453125 L 166.164062 66.441406 L 166.167969 66.4375 L 166.171875 66.429688 L 166.179688 66.421875 L 166.179688 66.417969 L 166.183594 66.40625 L 166.1875 66.402344 L 166.195312 66.386719 L 166.199219 66.386719 L 166.203125 66.375 L 166.207031 66.367188 L 166.210938 66.363281 L 166.214844 66.351562 L 166.222656 66.339844 L 166.226562 66.335938 L 166.230469 66.328125 L 166.234375 66.316406 L 166.242188 66.304688 L 166.246094 66.300781 L 166.253906 66.285156 L 166.253906 66.28125 L 166.261719 66.269531 L 166.265625 66.265625 L 166.269531 66.257812 L 166.472656 65.894531 L 166.480469 65.875 L 166.492188 65.859375 L 166.5 65.84375 L 166.511719 65.824219 L 166.519531 65.808594 L 166.53125 65.792969 L 166.539062 65.773438 L 166.546875 65.757812 L 166.558594 65.738281 L 166.566406 65.722656 L 166.578125 65.707031 L 166.585938 65.6875 L 166.597656 65.671875 L 166.605469 65.65625 L 166.613281 65.636719 L 166.625 65.621094 L 166.632812 65.605469 L 166.644531 65.585938 L 166.652344 65.570312 L 166.664062 65.550781 L 166.675781 65.527344 L 166.917969 65.09375 L 166.957031 65.027344 L 167.03125 64.890625 L 167.085938 64.796875 L 167.289062 64.429688 L 167.292969 64.421875 L 167.308594 64.398438 L 167.3125 64.386719 L 167.316406 64.378906 L 167.320312 64.375 L 167.328125 64.363281 L 167.332031 64.351562 L 167.335938 64.347656 L 167.339844 64.339844 L 167.347656 64.328125 L 167.351562 64.316406 L 167.359375 64.308594 L 167.367188 64.296875 L 167.367188 64.292969 L 167.371094 64.285156 L 167.394531 64.242188 L 167.398438 64.238281 L 167.441406 64.15625 L 167.449219 64.148438 L 167.453125 64.140625 L 167.457031 64.136719 L 167.460938 64.125 L 167.46875 64.113281 L 167.699219 63.703125 L 167.699219 63.699219 L 167.707031 63.6875 L 167.710938 63.683594 L 167.726562 63.652344 L 167.730469 63.648438 L 167.738281 63.632812 L 167.742188 63.628906 L 167.753906 63.601562 L 167.757812 63.597656 L 167.761719 63.589844 L 167.796875 63.53125 L 167.808594 63.503906 L 167.816406 63.496094 L 167.816406 63.492188 L 167.824219 63.480469 L 167.875 63.394531 L 167.878906 63.382812 L 167.898438 63.347656 L 167.902344 63.34375 L 167.90625 63.335938 L 168.113281 62.96875 L 168.121094 62.957031 L 168.121094 62.953125 L 168.125 62.949219 L 168.140625 62.925781 L 168.140625 62.917969 L 168.144531 62.914062 L 168.160156 62.890625 L 168.160156 62.882812 L 168.164062 62.878906 L 168.179688 62.855469 L 168.179688 62.851562 L 168.183594 62.84375 L 168.191406 62.832031 L 168.195312 62.820312 L 168.199219 62.816406 L 168.210938 62.800781 L 168.210938 62.796875 L 168.21875 62.78125 L 168.222656 62.777344 L 168.230469 62.765625 L 168.238281 62.746094 L 168.242188 62.742188 L 168.277344 62.679688 L 168.28125 62.671875 L 168.53125 62.238281 L 168.53125 62.234375 L 168.539062 62.222656 L 168.542969 62.222656 L 168.546875 62.210938 L 168.550781 62.203125 L 168.554688 62.199219 L 168.5625 62.1875 L 168.5625 62.183594 L 168.570312 62.171875 L 168.570312 62.167969 L 168.578125 62.160156 L 168.582031 62.152344 L 168.582031 62.148438 L 168.589844 62.136719 L 168.597656 62.121094 L 168.601562 62.117188 L 168.609375 62.101562 L 168.613281 62.097656 L 168.640625 62.050781 L 168.640625 62.046875 L 168.648438 62.035156 L 168.648438 62.03125 L 168.742188 61.875 L 168.953125 61.507812 L 168.964844 61.492188 L 168.96875 61.484375 L 168.976562 61.472656 C 169.183594 61.117188 169.390625 60.765625 169.605469 60.414062 C 169.679688 60.289062 169.753906 60.167969 169.828125 60.046875 L 169.835938 60.035156 L 169.835938 60.03125 L 169.839844 60.023438 L 169.855469 60 L 169.859375 59.996094 L 169.863281 59.988281 L 169.867188 59.976562 L 169.875 59.96875 L 169.878906 59.960938 L 169.882812 59.957031 L 169.902344 59.925781 L 169.902344 59.921875 L 169.910156 59.910156 L 169.953125 59.839844 L 169.960938 59.828125 C 170.140625 59.535156 170.324219 59.242188 170.507812 58.949219 C 170.585938 58.828125 170.664062 58.707031 170.742188 58.585938 L 170.75 58.574219 L 170.75 58.566406 L 170.808594 58.480469 L 170.828125 58.445312 C 171.035156 58.125 171.246094 57.804688 171.460938 57.488281 C 171.542969 57.367188 171.625 57.246094 171.707031 57.125 C 171.960938 56.753906 172.21875 56.386719 172.480469 56.027344 C 172.570312 55.902344 172.660156 55.78125 172.75 55.660156 C 172.945312 55.398438 173.144531 55.136719 173.34375 54.878906 L 173.351562 54.871094 L 173.398438 54.808594 L 173.402344 54.800781 L 173.414062 54.792969 L 173.417969 54.785156 L 173.425781 54.773438 L 173.429688 54.769531 L 173.4375 54.757812 L 173.445312 54.75 L 173.453125 54.738281 L 173.457031 54.734375 L 173.464844 54.722656 L 173.46875 54.71875 L 173.480469 54.703125 L 173.484375 54.699219 L 173.492188 54.6875 L 173.496094 54.683594 L 173.507812 54.667969 L 173.511719 54.667969 C 173.734375 54.386719 173.957031 54.105469 174.1875 53.835938 C 174.292969 53.710938 174.394531 53.589844 174.5 53.46875 C 174.730469 53.203125 174.964844 52.941406 175.203125 52.683594 L 175.21875 52.667969 L 175.226562 52.65625 L 175.257812 52.625 L 175.265625 52.613281 L 175.273438 52.605469 L 175.285156 52.597656 L 175.289062 52.589844 L 175.316406 52.5625 L 175.320312 52.554688 L 175.367188 52.507812 L 175.367188 52.503906 L 175.398438 52.472656 L 175.402344 52.472656 L 175.414062 52.457031 L 175.417969 52.457031 L 175.429688 52.441406 L 175.480469 52.390625 L 175.480469 52.386719 L 175.496094 52.371094 C 175.613281 52.25 175.730469 52.128906 175.851562 52.007812 L 175.902344 51.957031 L 175.902344 51.953125 L 175.910156 51.945312 L 175.921875 51.9375 L 175.921875 51.933594 L 175.9375 51.917969 L 175.945312 51.914062 L 176.003906 51.855469 L 176.007812 51.847656 L 176.015625 51.84375 L 176.023438 51.832031 L 176.027344 51.832031 L 176.035156 51.820312 L 176.042969 51.8125 L 176.046875 51.8125 L 176.132812 51.726562 L 176.140625 51.722656 L 176.152344 51.710938 L 176.160156 51.699219 L 176.183594 51.675781 L 176.1875 51.675781 L 176.195312 51.664062 L 176.207031 51.652344 L 176.21875 51.644531 C 176.347656 51.519531 176.472656 51.398438 176.601562 51.277344 L 176.609375 51.273438 L 176.65625 51.226562 L 176.660156 51.226562 L 176.667969 51.214844 L 176.679688 51.207031 L 176.699219 51.1875 L 176.707031 51.183594 L 176.742188 51.148438 L 176.757812 51.136719 L 176.792969 51.101562 L 176.796875 51.101562 L 176.816406 51.082031 L 176.832031 51.070312 L 176.867188 51.035156 L 176.875 51.03125 L 176.878906 51.023438 L 176.894531 51.011719 L 176.90625 51.003906 L 176.941406 50.96875 L 176.953125 50.960938 L 176.953125 50.957031 L 176.96875 50.945312 L 176.980469 50.933594 L 176.992188 50.925781 L 177.003906 50.914062 C 177.199219 50.742188 177.394531 50.570312 177.59375 50.40625 L 177.597656 50.40625 L 177.632812 50.371094 L 177.640625 50.367188 L 177.675781 50.339844 L 177.6875 50.328125 L 177.703125 50.316406 L 177.714844 50.304688 L 177.726562 50.296875 L 177.742188 50.28125 L 177.746094 50.28125 L 177.757812 50.269531 L 177.769531 50.261719 L 177.796875 50.238281 L 177.8125 50.226562 C 178.144531 49.957031 178.480469 49.699219 178.828125 49.449219 C 179.003906 49.328125 179.179688 49.207031 179.355469 49.085938 C 179.957031 48.683594 180.578125 48.320312 181.226562 47.988281 C 181.480469 47.863281 181.734375 47.738281 181.996094 47.625 C 183.050781 47.152344 184.167969 46.78125 185.355469 46.527344 C 186.070312 46.375 186.8125 46.265625 187.578125 46.203125 C 188.347656 46.265625 189.085938 46.375 189.800781 46.527344 L 189.804688 46.527344 C 190.992188 46.78125 192.109375 47.152344 193.164062 47.625 C 193.421875 47.738281 193.679688 47.863281 193.929688 47.988281 L 193.933594 47.988281 C 194.578125 48.320312 195.203125 48.683594 195.804688 49.085938 L 195.800781 49.085938 C 195.980469 49.203125 196.15625 49.328125 196.328125 49.449219 L 196.332031 49.449219 C 196.722656 49.730469 197.105469 50.023438 197.476562 50.332031 L 197.484375 50.339844 L 197.496094 50.347656 L 197.5 50.351562 L 197.511719 50.359375 L 197.523438 50.371094 L 197.539062 50.382812 L 197.550781 50.394531 L 197.5625 50.402344 L 197.578125 50.417969 L 197.585938 50.421875 L 197.59375 50.429688 L 197.605469 50.4375 L 197.621094 50.449219 L 197.648438 50.476562 L 197.671875 50.492188 L 197.671875 50.496094 L 197.6875 50.507812 L 197.699219 50.519531 L 197.714844 50.527344 L 197.714844 50.53125 L 197.726562 50.539062 L 197.734375 50.546875 C 197.875 50.667969 198.015625 50.789062 198.15625 50.914062 L 198.179688 50.9375 L 198.1875 50.941406 L 198.207031 50.960938 L 198.210938 50.960938 L 198.226562 50.976562 L 198.238281 50.984375 L 198.246094 50.996094 L 198.25 51 L 198.265625 51.011719 L 198.277344 51.023438 L 198.285156 51.027344 L 198.332031 51.074219 L 198.34375 51.082031 L 198.34375 51.085938 L 198.359375 51.097656 L 198.371094 51.109375 L 198.382812 51.117188 L 198.414062 51.148438 L 198.421875 51.152344 L 198.425781 51.160156 L 198.4375 51.171875 L 198.441406 51.171875 L 198.457031 51.1875 L 198.46875 51.195312 L 198.476562 51.207031 L 198.480469 51.210938 L 198.496094 51.222656 L 198.515625 51.242188 L 198.523438 51.246094 L 198.535156 51.261719 L 198.550781 51.273438 L 198.554688 51.277344 C 198.710938 51.421875 198.867188 51.570312 199.019531 51.722656 L 199.023438 51.726562 L 199.03125 51.730469 L 199.042969 51.742188 L 199.042969 51.746094 L 199.132812 51.832031 L 199.132812 51.835938 L 199.203125 51.902344 L 199.210938 51.914062 L 199.234375 51.9375 L 199.238281 51.9375 L 199.253906 51.957031 L 199.257812 51.957031 L 199.28125 51.980469 L 199.289062 51.992188 L 199.292969 51.992188 L 199.308594 52.007812 C 199.425781 52.128906 199.546875 52.25 199.664062 52.375 L 199.675781 52.390625 L 199.679688 52.390625 L 199.710938 52.421875 L 199.757812 52.472656 L 199.761719 52.476562 L 199.773438 52.492188 L 199.777344 52.492188 L 199.789062 52.507812 L 199.820312 52.539062 L 199.824219 52.546875 L 199.875 52.597656 L 199.882812 52.609375 L 199.914062 52.640625 L 199.921875 52.652344 L 199.929688 52.660156 L 199.941406 52.667969 L 199.945312 52.675781 L 199.972656 52.703125 L 199.976562 52.710938 L 199.992188 52.726562 C 200.21875 52.96875 200.441406 53.21875 200.660156 53.46875 L 200.65625 53.46875 C 200.761719 53.589844 200.867188 53.714844 200.96875 53.835938 L 200.972656 53.835938 C 201.210938 54.121094 201.445312 54.410156 201.679688 54.707031 L 201.6875 54.71875 L 201.691406 54.722656 L 201.703125 54.738281 L 201.707031 54.742188 L 201.714844 54.753906 L 201.71875 54.757812 L 201.726562 54.769531 L 201.734375 54.777344 L 201.742188 54.789062 L 201.746094 54.792969 L 201.753906 54.804688 L 201.769531 54.820312 L 201.773438 54.828125 L 201.78125 54.839844 L 201.785156 54.84375 C 201.996094 55.113281 202.207031 55.386719 202.410156 55.664062 C 202.5 55.785156 202.589844 55.90625 202.675781 56.027344 L 202.679688 56.027344 C 202.941406 56.390625 203.199219 56.753906 203.449219 57.125 C 203.535156 57.246094 203.617188 57.367188 203.699219 57.492188 C 203.914062 57.808594 204.121094 58.128906 204.328125 58.449219 L 204.359375 58.496094 L 204.367188 58.503906 L 204.375 58.515625 L 204.375 58.519531 L 204.382812 58.527344 L 204.386719 58.535156 L 204.386719 58.539062 L 204.402344 58.5625 L 204.40625 58.570312 L 204.410156 58.574219 L 204.417969 58.585938 C 204.496094 58.707031 204.574219 58.828125 204.652344 58.953125 C 204.824219 59.222656 204.996094 59.5 205.164062 59.773438 L 205.183594 59.808594 L 205.191406 59.820312 L 205.195312 59.824219 L 205.199219 59.832031 L 205.207031 59.84375 L 205.21875 59.867188 L 205.226562 59.875 L 205.226562 59.878906 L 205.234375 59.886719 L 205.238281 59.894531 L 205.242188 59.898438 L 205.246094 59.910156 L 205.253906 59.921875 L 205.257812 59.929688 L 205.261719 59.933594 L 205.277344 59.957031 L 205.277344 59.960938 L 205.28125 59.96875 L 205.296875 59.992188 L 205.300781 59.996094 L 205.304688 60.003906 L 205.3125 60.011719 L 205.316406 60.023438 L 205.320312 60.03125 L 205.324219 60.035156 L 205.332031 60.046875 C 205.40625 60.167969 205.480469 60.292969 205.554688 60.414062 C 205.773438 60.777344 205.988281 61.144531 206.203125 61.507812 L 206.417969 61.875 C 206.621094 62.226562 206.824219 62.582031 207.027344 62.9375 L 207.046875 62.972656 L 207.253906 63.335938 L 207.265625 63.359375 L 207.273438 63.371094 L 207.285156 63.394531 L 207.292969 63.40625 L 207.296875 63.410156 L 207.300781 63.417969 L 207.34375 63.496094 L 207.355469 63.515625 L 207.355469 63.519531 L 207.363281 63.53125 L 207.375 63.550781 L 207.375 63.554688 L 207.390625 63.578125 L 207.390625 63.582031 L 207.394531 63.589844 L 207.410156 63.613281 L 207.410156 63.617188 L 207.414062 63.621094 L 207.421875 63.632812 L 207.425781 63.644531 L 207.429688 63.652344 L 207.433594 63.65625 L 207.441406 63.667969 L 207.445312 63.679688 L 207.449219 63.683594 L 207.453125 63.691406 L 207.460938 63.703125 L 207.664062 64.066406 L 207.667969 64.074219 L 207.671875 64.078125 L 207.675781 64.089844 L 207.695312 64.125 L 207.703125 64.136719 L 207.707031 64.140625 L 207.710938 64.148438 L 207.714844 64.160156 L 207.722656 64.171875 L 207.726562 64.175781 L 207.734375 64.191406 L 207.734375 64.195312 L 207.742188 64.207031 L 207.75 64.214844 L 207.753906 64.226562 L 207.761719 64.238281 L 207.765625 64.246094 L 207.765625 64.25 L 207.78125 64.273438 L 207.785156 64.277344 L 207.785156 64.285156 L 207.800781 64.308594 L 207.800781 64.3125 L 207.804688 64.320312 L 207.8125 64.328125 L 207.8125 64.332031 L 207.820312 64.34375 L 207.820312 64.347656 L 207.824219 64.351562 L 207.839844 64.375 L 207.839844 64.382812 L 207.851562 64.398438 L 207.855469 64.410156 L 207.859375 64.414062 L 207.863281 64.421875 L 207.871094 64.433594 L 208.074219 64.796875 L 208.085938 64.820312 L 208.097656 64.839844 L 208.105469 64.855469 L 208.117188 64.871094 L 208.125 64.890625 L 208.136719 64.90625 L 208.144531 64.925781 L 208.152344 64.941406 L 208.164062 64.957031 L 208.171875 64.976562 L 208.183594 64.992188 L 208.191406 65.007812 L 208.203125 65.027344 L 208.210938 65.042969 L 208.222656 65.0625 L 208.25 65.113281 L 208.257812 65.128906 L 208.269531 65.144531 L 208.277344 65.164062 L 208.480469 65.527344 L 208.488281 65.535156 L 208.496094 65.554688 L 208.503906 65.570312 L 208.515625 65.585938 L 208.523438 65.605469 L 208.535156 65.621094 L 208.542969 65.636719 L 208.554688 65.65625 L 208.5625 65.671875 L 208.574219 65.691406 L 208.589844 65.722656 L 208.601562 65.742188 L 208.609375 65.757812 L 208.621094 65.773438 L 208.628906 65.792969 L 208.640625 65.808594 L 208.648438 65.824219 L 208.660156 65.84375 L 208.667969 65.859375 L 208.675781 65.878906 L 208.6875 65.894531 L 208.890625 66.257812 L 208.894531 66.265625 L 208.898438 66.269531 L 208.902344 66.28125 L 208.90625 66.285156 L 208.914062 66.300781 L 208.917969 66.304688 L 208.921875 66.316406 L 208.925781 66.320312 L 208.933594 66.335938 L 208.9375 66.339844 L 208.941406 66.351562 L 208.953125 66.371094 L 208.953125 66.375 L 208.96875 66.398438 L 208.972656 66.402344 L 208.972656 66.410156 L 208.988281 66.433594 L 208.992188 66.4375 L 208.992188 66.441406 L 209 66.453125 L 209 66.457031 L 209.03125 66.511719 L 209.039062 66.523438 L 209.042969 66.535156 L 209.046875 66.539062 L 209.050781 66.546875 L 209.078125 66.589844 L 209.078125 66.59375 L 209.085938 66.609375 L 209.089844 66.613281 L 209.09375 66.625 L 209.300781 66.992188 L 209.304688 66.996094 L 209.308594 67.003906 L 209.367188 67.109375 L 209.371094 67.117188 L 209.375 67.121094 L 209.402344 67.175781 L 209.410156 67.183594 L 209.410156 67.1875 L 209.425781 67.214844 L 209.429688 67.21875 L 209.433594 67.226562 L 209.445312 67.253906 L 209.449219 67.253906 L 209.453125 67.265625 L 209.457031 67.269531 L 209.460938 67.277344 L 209.464844 67.289062 L 209.46875 67.292969 L 209.476562 67.304688 L 209.476562 67.308594 L 209.492188 67.332031 L 209.496094 67.339844 L 209.5 67.34375 L 209.503906 67.355469 L 209.769531 67.824219 L 209.773438 67.832031 L 209.777344 67.835938 L 209.800781 67.882812 L 209.808594 67.894531 L 209.816406 67.902344 L 209.820312 67.914062 L 209.828125 67.925781 L 209.832031 67.933594 L 209.832031 67.9375 L 209.859375 67.984375 L 209.867188 67.996094 L 209.871094 68 L 209.871094 68.007812 L 209.886719 68.03125 L 209.886719 68.035156 L 209.890625 68.042969 L 209.898438 68.050781 L 209.898438 68.054688 L 209.90625 68.066406 L 209.90625 68.070312 L 209.910156 68.078125 L 209.917969 68.085938 L 210.125 68.453125 L 210.132812 68.460938 L 210.132812 68.464844 L 210.140625 68.472656 L 210.140625 68.476562 L 210.144531 68.484375 L 210.160156 68.507812 L 210.160156 68.511719 L 210.167969 68.519531 L 210.171875 68.527344 L 210.171875 68.53125 L 210.179688 68.542969 L 210.179688 68.546875 L 210.1875 68.554688 L 210.191406 68.5625 L 210.191406 68.566406 L 210.207031 68.589844 L 210.210938 68.597656 L 210.210938 68.601562 L 210.226562 68.625 L 210.230469 68.628906 L 210.234375 68.636719 L 210.238281 68.648438 L 210.246094 68.65625 L 210.25 68.664062 L 210.253906 68.667969 L 210.257812 68.679688 L 210.265625 68.691406 L 210.269531 68.699219 L 210.273438 68.703125 L 210.277344 68.714844 L 210.285156 68.726562 L 210.289062 68.730469 L 210.292969 68.738281 L 210.296875 68.75 L 210.304688 68.761719 L 210.324219 68.796875 L 210.328125 68.800781 L 210.335938 68.816406 L 210.550781 69.183594 L 210.554688 69.191406 L 210.554688 69.195312 L 210.5625 69.207031 L 210.566406 69.207031 L 210.570312 69.21875 L 210.582031 69.242188 L 210.585938 69.242188 L 210.59375 69.257812 L 210.597656 69.261719 L 210.601562 69.273438 L 210.605469 69.277344 L 210.613281 69.292969 L 210.617188 69.296875 L 210.625 69.308594 L 210.625 69.3125 L 210.632812 69.328125 L 210.636719 69.332031 L 210.644531 69.34375 L 210.648438 69.355469 L 210.652344 69.363281 L 210.65625 69.367188 L 210.671875 69.390625 L 210.671875 69.394531 L 210.675781 69.402344 L 210.691406 69.425781 L 210.695312 69.429688 L 210.695312 69.4375 L 210.703125 69.445312 L 210.703125 69.449219 L 210.710938 69.457031 L 210.714844 69.464844 L 210.71875 69.46875 L 210.722656 69.480469 L 210.730469 69.492188 L 210.734375 69.496094 L 210.738281 69.503906 L 210.742188 69.515625 L 210.746094 69.515625 L 210.75 69.527344 L 210.753906 69.53125 L 210.761719 69.546875 C 210.835938 69.671875 210.90625 69.792969 210.980469 69.914062 L 210.988281 69.929688 L 210.996094 69.941406 L 211.003906 69.957031 L 211.007812 69.957031 L 211.011719 69.964844 L 211.019531 69.984375 L 211.027344 69.992188 L 211.035156 70.007812 L 211.042969 70.019531 L 211.046875 70.027344 L 211.054688 70.035156 L 211.066406 70.058594 L 211.066406 70.0625 L 211.074219 70.070312 L 211.199219 70.28125 L 211.3125 70.46875 L 211.417969 70.644531 L 211.640625 71.007812 L 211.863281 71.375 L 212.082031 71.738281 L 212.527344 72.472656 L 212.75 72.835938 L 212.96875 73.203125 L 213.191406 73.570312 L 213.636719 74.296875 L 213.855469 74.664062 L 214.078125 75.027344 L 214.523438 75.761719 L 214.742188 76.125 L 214.964844 76.492188 L 215.1875 76.855469 L 215.40625 77.222656 L 215.628906 77.585938 L 215.851562 77.953125 L 216.074219 78.316406 L 216.292969 78.683594 L 216.515625 79.050781 L 216.738281 79.414062 L 216.960938 79.78125 L 217.179688 80.144531 L 217.402344 80.511719 L 217.625 80.875 L 217.84375 81.242188 L 218.066406 81.605469 L 218.511719 82.339844 L 218.730469 82.703125 L 218.953125 83.070312 L 219.175781 83.433594 L 219.394531 83.800781 L 219.617188 84.164062 L 219.839844 84.53125 L 220.0625 84.894531 L 220.28125 85.261719 L 220.503906 85.628906 L 220.726562 85.992188 L 220.945312 86.355469 L 221.167969 86.722656 L 221.390625 87.085938 L 221.609375 87.453125 L 221.832031 87.820312 L 222.054688 88.183594 L 222.277344 88.550781 L 222.5 88.914062 L 222.71875 89.28125 L 222.941406 89.644531 L 223.164062 90.011719 L 223.382812 90.375 L 223.828125 91.109375 L 224.050781 91.472656 L 224.269531 91.839844 L 224.492188 92.203125 L 224.714844 92.570312 L 224.933594 92.933594 L 225.15625 93.300781 L 225.378906 93.664062 L 225.601562 94.03125 L 225.820312 94.394531 L 226.265625 95.128906 L 226.488281 95.492188 L 226.707031 95.859375 L 226.929688 96.222656 L 227.152344 96.589844 L 227.375 96.953125 L 227.59375 97.320312 L 227.816406 97.683594 L 228.261719 98.417969 L 228.480469 98.78125 L 228.703125 99.148438 L 228.925781 99.511719 L 229.144531 99.878906 L 229.367188 100.242188 L 229.589844 100.609375 L 229.808594 100.972656 L 230.253906 101.707031 L 230.476562 102.070312 L 230.695312 102.4375 L 230.917969 102.800781 L 231.140625 103.167969 L 231.359375 103.53125 L 231.804688 104.265625 L 232.027344 104.628906 L 232.25 104.996094 L 232.46875 105.359375 L 232.691406 105.722656 L 232.910156 106.089844 L 233.132812 106.457031 L 233.355469 106.820312 L 233.578125 107.1875 L 233.796875 107.550781 L 234.019531 107.917969 L 234.242188 108.28125 L 234.464844 108.648438 L 234.683594 109.011719 L 235.128906 109.746094 L 235.347656 110.109375 L 235.570312 110.476562 L 235.792969 110.839844 L 236.015625 111.207031 L 236.234375 111.570312 L 236.457031 111.9375 L 236.679688 112.300781 L 236.902344 112.667969 L 237.121094 113.035156 L 237.34375 113.398438 L 237.789062 114.132812 L 238.007812 114.496094 L 238.230469 114.859375 L 238.453125 115.226562 L 238.671875 115.59375 L 238.894531 115.957031 L 239.117188 116.324219 L 239.339844 116.6875 L 239.558594 117.054688 L 239.78125 117.417969 L 240.003906 117.785156 L 240.226562 118.148438 L 240.445312 118.515625 L 240.667969 118.878906 L 240.890625 119.246094 L 241.109375 119.613281 L 241.332031 119.976562 L 241.554688 120.34375 L 241.777344 120.707031 L 241.996094 121.074219 L 242.21875 121.4375 L 242.441406 121.804688 L 242.664062 122.167969 L 242.882812 122.535156 L 243.105469 122.902344 L 243.328125 123.265625 L 243.550781 123.632812 L 243.769531 123.996094 L 243.992188 124.363281 L 244.210938 124.726562 L 244.65625 125.460938 L 244.878906 125.824219 L 245.101562 126.191406 L 245.320312 126.554688 L 245.542969 126.921875 L 245.765625 127.285156 L 245.984375 127.652344 L 246.207031 128.015625 L 246.429688 128.382812 L 246.652344 128.746094 L 246.871094 129.113281 L 247.09375 129.480469 L 247.316406 129.84375 L 247.539062 130.210938 L 247.757812 130.574219 L 247.980469 130.941406 L 248.199219 131.304688 L 248.421875 131.671875 L 248.644531 132.035156 L 249.089844 132.769531 L 249.308594 133.132812 L 249.53125 133.5 L 249.753906 133.863281 L 249.972656 134.230469 L 250.195312 134.59375 L 250.417969 134.960938 L 250.640625 135.324219 L 250.859375 135.691406 L 251.082031 136.058594 L 251.304688 136.421875 L 251.523438 136.789062 L 251.746094 137.152344 L 251.96875 137.519531 L 252.191406 137.882812 L 252.414062 138.25 L 252.632812 138.617188 L 252.855469 138.980469 L 253.078125 139.347656 L 253.296875 139.710938 L 253.519531 140.078125 L 253.742188 140.441406 L 253.964844 140.808594 L 254.183594 141.171875 L 254.628906 141.90625 L 254.851562 142.269531 L 255.070312 142.636719 L 255.292969 143 L 255.515625 143.367188 L 255.734375 143.730469 L 255.957031 144.097656 L 256.179688 144.460938 L 256.625 145.195312 L 256.84375 145.558594 L 257.066406 145.925781 L 257.289062 146.289062 L 257.507812 146.65625 L 257.730469 147.019531 L 258.175781 147.753906 L 258.617188 148.484375 L 258.839844 148.847656 L 259.058594 149.214844 L 259.28125 149.578125 L 259.503906 149.945312 L 259.726562 150.308594 L 259.945312 150.675781 L 260.167969 151.039062 L 260.613281 151.773438 L 260.832031 152.136719 L 261.054688 152.503906 L 261.277344 152.867188 L 261.5 153.234375 L 261.71875 153.597656 L 261.941406 153.964844 L 262.164062 154.328125 L 262.386719 154.695312 L 262.605469 155.0625 L 263.050781 155.789062 L 263.269531 156.15625 L 263.492188 156.523438 L 263.714844 156.886719 L 263.9375 157.253906 L 264.160156 157.617188 L 264.378906 157.984375 L 264.601562 158.351562 L 264.824219 158.714844 L 265.042969 159.078125 L 265.488281 159.8125 L 265.710938 160.175781 L 265.929688 160.542969 L 266.152344 160.90625 L 266.597656 161.640625 L 266.816406 162.003906 L 267.039062 162.371094 L 267.261719 162.734375 L 267.484375 163.101562 L 267.703125 163.464844 L 267.925781 163.832031 L 268.148438 164.195312 L 268.371094 164.5625 L 268.589844 164.925781 L 268.8125 165.292969 L 269.035156 165.65625 L 269.253906 166.023438 L 269.476562 166.390625 L 269.699219 166.753906 L 367.957031 328.808594 C 317.011719 328.5 209.699219 337.613281 202.847656 244.542969 C 202.027344 233.386719 223.445312 234.453125 241.109375 222.722656 C 251.894531 215.554688 256.378906 206.953125 254.550781 196.910156 C 238.28125 218.488281 202.546875 200.492188 187.582031 217.089844 C 172.617188 200.492188 136.878906 218.488281 120.613281 196.910156 C 118.785156 206.953125 123.261719 215.554688 134.050781 222.722656 C 151.714844 234.453125 173.136719 233.386719 172.3125 244.542969 C 165.464844 337.613281 58.144531 328.5 7.207031 328.808594 Z M 7.203125 328.808594 " fill-opacity="1" fill-rule="evenodd"/></g><g clip-path="url(#id2)"><path fill="#00d7ff" d="M 204.117188 255.105469 C 218.089844 336.910156 319.027344 328.515625 367.953125 328.808594 C 322.238281 283.503906 263.71875 258.9375 204.117188 255.105469 Z M 7.203125 328.808594 C 56.132812 328.515625 157.070312 336.910156 171.039062 255.105469 C 111.4375 258.9375 52.921875 283.503906 7.203125 328.808594 Z M 7.203125 328.808594 " fill-opacity="1" fill-rule="evenodd"/></g><path fill="#72ffff" d="M 187.59375 217.113281 C 172.597656 200.507812 136.882812 218.503906 120.621094 196.945312 C 118.765625 206.972656 123.296875 215.578125 134.0625 222.734375 C 151.734375 234.472656 173.117188 233.398438 172.300781 244.554688 C 172.078125 248.238281 171.632812 251.742188 171.039062 255.105469 C 169.851562 255.164062 168.664062 255.25 167.398438 255.335938 L 167.398438 255.394531 C 128.9375 258.40625 90.921875 270.117188 56.695312 290.488281 L 118.617188 188.367188 L 123.445312 194.800781 C 137.699219 213.695312 170.296875 198.246094 187.597656 212.246094 C 204.894531 198.246094 237.492188 213.695312 251.746094 194.800781 L 256.574219 188.367188 L 318.496094 290.488281 C 284.269531 270.117188 246.328125 258.40625 207.792969 255.394531 L 207.792969 255.335938 C 206.53125 255.25 205.339844 255.164062 204.152344 255.105469 C 203.558594 251.742188 203.113281 248.238281 202.890625 244.554688 C 202.074219 233.398438 223.457031 234.472656 241.128906 222.734375 C 251.894531 215.578125 256.425781 206.972656 254.566406 196.945312 C 238.308594 218.503906 202.59375 200.507812 187.597656 217.113281 Z M 187.59375 217.113281 " fill-opacity="1" fill-rule="evenodd"/></svg>